<?xml version="1.0" standalone="no"?>
<!DOCTYPE svg PUBLIC "-//W3C//DTD SVG 20010904//EN"
 "http://www.w3.org/TR/2001/REC-SVG-20010904/DTD/svg10.dtd">
<svg version="1.0" xmlns="http://www.w3.org/2000/svg"
 width="256.000000pt" height="256.000000pt" viewBox="0 0 256.000000 256.000000"
 preserveAspectRatio="xMidYMid meet">

<g transform="translate(0.000000,256.000000) scale(0.100000,-0.100000)"
fill="#000000" fill-opacity="0.0" stroke="none">
<path d="M0 1953 l0 -608 197 3 c109 2 199 5 200 6 2 1 -4 34 -12 72 -8 38
-15 112 -15 164 0 161 36 281 116 385 33 44 33 44 23 107 -11 66 -6 186 12
270 l11 50 59 -6 c95 -11 168 -34 266 -82 l91 -46 89 13 c113 16 320 16 448 0
l100 -13 75 40 c83 45 186 78 271 86 l56 6 13 -53 c7 -28 15 -108 18 -177 4
-116 7 -128 32 -165 42 -62 76 -133 101 -215 19 -62 23 -98 24 -210 0 -74 -4
-156 -8 -182 l-8 -48 169 0 c93 0 184 -3 201 -6 l31 -6 0 611 0 611 -1280 0
-1280 0 0 -607z"/>
<path d="M0 655 l0 -655 1280 0 1280 0 0 655 0 655 -152 -1 c-84 -1 -180 -4
-213 -8 l-60 -7 95 -7 c121 -10 248 -27 278 -38 21 -8 32 -39 14 -39 -5 0 -53
6 -108 14 -54 8 -142 17 -195 21 l-97 7 -37 -56 c-88 -133 -259 -234 -458
-271 l-37 -7 20 -28 c45 -63 51 -102 57 -384 6 -262 7 -269 30 -296 12 -15 23
-31 23 -34 0 -11 -76 -6 -126 9 -28 8 -61 26 -75 41 -24 25 -24 30 -29 237 -3
143 -8 203 -14 184 -5 -16 -7 -118 -4 -227 3 -164 7 -202 21 -223 9 -15 17
-29 17 -32 0 -11 -102 -4 -135 9 -63 27 -66 40 -74 298 l-6 233 -7 -239 c-8
-266 -11 -277 -75 -296 -21 -6 -62 -10 -91 -8 l-54 3 21 27 c20 25 21 37 21
265 0 157 -4 233 -10 223 -5 -8 -10 -102 -10 -210 -1 -123 -6 -208 -13 -230
-16 -46 -62 -71 -145 -78 l-66 -5 27 32 c27 32 27 33 27 196 l0 162 -112 5
c-71 3 -127 11 -149 20 -61 27 -116 85 -188 202 -63 100 -142 196 -163 196 -4
0 -8 5 -8 11 0 20 110 1 155 -26 22 -13 74 -53 115 -90 106 -93 136 -105 251
-105 l94 0 18 50 c10 28 31 65 47 84 l30 33 -63 12 c-207 39 -382 137 -467
260 l-35 51 -100 -6 c-55 -3 -142 -12 -192 -20 -51 -8 -100 -14 -108 -14 -16
0 -21 25 -6 34 16 10 185 35 284 41 163 11 98 25 -119 25 l-204 0 0 -655z"/>
</g>
</svg>
